<?xml version="1.0" encoding="UTF-8" standalone="no"?><!DOCTYPE svg PUBLIC "-//W3C//DTD SVG 1.1//EN" "http://www.w3.org/Graphics/SVG/1.1/DTD/svg11.dtd"><svg width="100%" height="100%" viewBox="0 0 1067 1067" version="1.1" xmlns="http://www.w3.org/2000/svg" xmlns:xlink="http://www.w3.org/1999/xlink" xml:space="preserve" xmlns:serif="http://www.serif.com/" style="fill-rule:evenodd;clip-rule:evenodd;stroke-linejoin:round;stroke-miterlimit:2;"><g id="Layer-1" serif:id="Layer 1"></g><rect id="Artboard5" x="-0" y="0" width="1066.67" height="1066.67" style="fill:none;"/><path d="M1066.51,25c-0,-6.63 -2.634,-12.989 -7.322,-17.678c-4.689,-4.688 -11.048,-7.322 -17.678,-7.322c-144.556,0 -871.956,0 -1016.51,0c-6.63,-0 -12.989,2.634 -17.678,7.322c-4.688,4.689 -7.322,11.048 -7.322,17.678c0,144.556 0,871.956 0,1016.51c-0,6.63 2.634,12.989 7.322,17.678c4.689,4.688 11.048,7.322 17.678,7.322c144.556,-0 871.956,-0 1016.51,-0c6.63,-0 12.989,-2.634 17.678,-7.322c4.688,-4.689 7.322,-11.048 7.322,-17.678c-0,-144.556 -0,-871.956 -0,-1016.51Z" style="fill:#cdefee;"/><clipPath id="_clip1"><path d="M1066.51,25c-0,-6.63 -2.634,-12.989 -7.322,-17.678c-4.689,-4.688 -11.048,-7.322 -17.678,-7.322c-144.556,0 -871.956,0 -1016.51,0c-6.63,-0 -12.989,2.634 -17.678,7.322c-4.688,4.689 -7.322,11.048 -7.322,17.678c0,144.556 0,871.956 0,1016.51c-0,6.63 2.634,12.989 7.322,17.678c4.689,4.688 11.048,7.322 17.678,7.322c144.556,-0 871.956,-0 1016.51,-0c6.63,-0 12.989,-2.634 17.678,-7.322c4.688,-4.689 7.322,-11.048 7.322,-17.678c-0,-144.556 -0,-871.956 -0,-1016.51Z"/></clipPath><g clip-path="url(#_clip1)"><g><g><path d="M193.848,240.896l8.62,5.616l-21.901,4.622l-4.622,-21.901l8.62,5.616l51.837,-79.568l-8.62,-5.615l21.9,-4.622l4.622,21.9l-8.619,-5.615l-51.837,79.567Z" style="fill:#edfffe;"/><path d="M230.35,243.403l10.066,-2.124l-12.218,18.754l-18.755,-12.218l10.066,-2.124l-19.609,-92.917l-10.066,2.125l12.218,-18.755l18.755,12.218l-10.066,2.125l19.609,92.916Z" style="fill:#edfffe;"/><path d="M169.81,213.313l2.125,10.066l-18.755,-12.218l12.218,-18.754l2.125,10.066l92.916,-19.609l-2.124,-10.066l18.754,12.218l-12.218,18.754l-2.124,-10.066l-92.917,19.609Z" style="fill:#edfffe;"/><g><path d="M172.317,176.812l-5.615,8.62l-4.622,-21.901l21.9,-4.622l-5.615,8.62l79.568,51.836l5.615,-8.619l4.622,21.9l-21.901,4.622l5.616,-8.62l-79.568,-51.836Z" style="fill:#edfffe;"/></g></g></g><g><g><path d="M1045.07,1039.87l8.62,5.616l-21.901,4.622l-4.622,-21.901l8.62,5.615l51.836,-79.567l-8.62,-5.616l21.901,-4.622l4.622,21.901l-8.62,-5.616l-51.836,79.568Z" style="fill:#edfffe;"/><path d="M1081.57,1042.38l10.066,-2.124l-12.218,18.754l-18.754,-12.218l10.066,-2.124l-19.609,-92.917l-10.066,2.124l12.218,-18.754l18.754,12.218l-10.066,2.124l19.609,92.917Z" style="fill:#edfffe;"/><path d="M1021.03,1012.29l2.124,10.066l-18.754,-12.218l12.218,-18.754l2.124,10.066l92.917,-19.609l-2.124,-10.066l18.754,12.218l-12.218,18.754l-2.124,-10.066l-92.917,19.609Z" style="fill:#edfffe;"/><g><path d="M1023.54,975.786l-5.616,8.62l-4.622,-21.901l21.901,-4.622l-5.615,8.62l79.567,51.836l5.616,-8.62l4.622,21.901l-21.901,4.622l5.616,-8.62l-79.568,-51.836Z" style="fill:#edfffe;"/></g></g></g><g><g><path d="M60.619,1070.94l13.934,28.47l-65.237,-22.364l22.364,-65.237l13.934,28.47l262.802,-128.619l-13.934,-28.47l65.237,22.364l-22.364,65.237l-13.934,-28.47l-262.802,128.619Z" style="fill:#edfffe;"/><path d="M153.222,1135.23l29.984,10.279l-61.943,30.315l-30.316,-61.943l29.984,10.279l94.882,-276.776l-29.984,-10.279l61.943,-30.316l30.316,61.943l-29.984,-10.278l-94.882,276.776Z" style="fill:#edfffe;"/><path d="M40.595,960.007l-10.279,29.985l-30.316,-61.943l61.943,-30.316l-10.279,29.984l276.776,94.881l10.279,-29.984l30.316,61.943l-61.943,30.316l10.279,-29.984l-276.776,-94.882Z" style="fill:#edfffe;"/><g><path d="M104.878,867.405l-28.47,13.934l22.364,-65.237l65.236,22.364l-28.47,13.933l128.619,262.802l28.47,-13.934l-22.364,65.237l-65.236,-22.364l28.47,-13.933l-128.619,-262.802Z" style="fill:#edfffe;"/></g></g></g><g><path d="M679.521,281.404l18.106,31.485l-76.294,-20.583l20.583,-76.294l18.106,31.485l290.631,-167.134l-18.106,-31.485l76.294,20.583l-20.583,76.294l-18.106,-31.485l-290.631,167.134Z" style="fill:#edfffe;"/><path d="M790.306,347.822l35.066,9.46l-68.502,39.394l-39.394,-68.503l35.066,9.461l87.326,-323.689l-35.066,-9.46l68.502,-39.394l39.394,68.502l-35.066,-9.46l-87.326,323.689Z" style="fill:#edfffe;"/><path d="M648.149,156.102l-9.461,35.067l-39.394,-68.503l68.503,-39.394l-9.46,35.067l323.688,87.326l9.46,-35.067l39.394,68.503l-68.502,39.393l9.46,-35.066l-323.688,-87.326Z" style="fill:#edfffe;"/><g><path d="M714.566,45.317l-31.485,18.107l20.583,-76.295l76.294,20.583l-31.485,18.106l167.134,290.632l31.485,-18.107l-20.583,76.294l-76.294,-20.582l31.485,-18.107l-167.134,-290.631Z" style="fill:#edfffe;"/></g></g></g><path d="M626.661,467.25l401.862,-318.033l-302.383,48.33l-113.703,89.985l9.116,-73.269l-266.204,42.547l-26.553,130.584l81.596,64.478l20.807,133.519l-102.329,152.545l176.584,213.642l-95.062,115.011l287.262,-0.077l311.546,-114.934l-359.837,0l417.149,-66.792l-0,-338.215l-224.834,82.507l224.834,-128.515l-0,-96.676l-239.065,132.645l-60.625,-91.724l-140.161,22.442Z" style="fill:#597498;"/><path d="M394.717,546.065l-12.44,-75.72l-69.693,-55.212l-277.051,263.833l359.184,-132.901Z" style="fill:#597498;"/></svg>